<mxfile host="app.diagrams.net" modified="2023-03-23T06:35:36.728Z" agent="5.0 (Macintosh; Intel Mac OS X 10_15_7) AppleWebKit/537.36 (KHTML, like Gecko) Chrome/110.0.0.0 Safari/537.36" etag="iLtcQ8Av2GU2xkN_KRHB" version="20.8.20" type="github">
  <diagram name="第 1 页" id="kjjIg12_HesShUst-c6d">
    <mxGraphModel dx="943" dy="3767" grid="0" gridSize="10" guides="1" tooltips="1" connect="1" arrows="1" fold="1" page="1" pageScale="1" pageWidth="2339" pageHeight="3300" math="0" shadow="0">
      <root>
        <mxCell id="0" />
        <mxCell id="1" parent="0" />
        <mxCell id="RVXZUe4FiKriEfawHNxV-1" value="" style="endArrow=classic;html=1;rounded=0;shape=flexArrow;fillColor=#330000;" parent="1" edge="1">
          <mxGeometry width="50" height="50" relative="1" as="geometry">
            <mxPoint x="124" y="115" as="sourcePoint" />
            <mxPoint x="724" y="537" as="targetPoint" />
            <Array as="points">
              <mxPoint x="213" y="248" />
              <mxPoint x="330" y="248" />
              <mxPoint x="413" y="376" />
              <mxPoint x="538" y="376" />
              <mxPoint x="610" y="463" />
            </Array>
          </mxGeometry>
        </mxCell>
        <mxCell id="RVXZUe4FiKriEfawHNxV-2" value="" style="shape=umlActor;verticalLabelPosition=bottom;verticalAlign=top;html=1;outlineConnect=0;" parent="1" vertex="1">
          <mxGeometry x="154.5" y="108" width="15" height="30" as="geometry" />
        </mxCell>
        <mxCell id="RVXZUe4FiKriEfawHNxV-4" value="player" style="text;html=1;align=center;verticalAlign=middle;resizable=0;points=[];autosize=1;strokeColor=none;fillColor=none;" parent="1" vertex="1">
          <mxGeometry x="132" y="78" width="60" height="30" as="geometry" />
        </mxCell>
        <mxCell id="RVXZUe4FiKriEfawHNxV-7" value="" style="curved=1;endArrow=classic;html=1;rounded=0;strokeWidth=10;" parent="1" edge="1">
          <mxGeometry width="50" height="50" relative="1" as="geometry">
            <mxPoint x="1262" y="-67" as="sourcePoint" />
            <mxPoint x="1853" y="344" as="targetPoint" />
            <Array as="points">
              <mxPoint x="1307" y="-4" />
              <mxPoint x="1335" y="32" />
              <mxPoint x="1399" y="67" />
              <mxPoint x="1460" y="71" />
              <mxPoint x="1516" y="139" />
              <mxPoint x="1551" y="179" />
              <mxPoint x="1674" y="147" />
              <mxPoint x="1711" y="221" />
              <mxPoint x="1746" y="289" />
            </Array>
          </mxGeometry>
        </mxCell>
        <mxCell id="RVXZUe4FiKriEfawHNxV-8" value="" style="ellipse;whiteSpace=wrap;html=1;aspect=fixed;strokeWidth=4;" parent="1" vertex="1">
          <mxGeometry x="246" y="736" width="80" height="80" as="geometry" />
        </mxCell>
        <mxCell id="RVXZUe4FiKriEfawHNxV-10" value="" style="ellipse;whiteSpace=wrap;html=1;aspect=fixed;strokeWidth=4;" parent="1" vertex="1">
          <mxGeometry x="246" y="816" width="80" height="80" as="geometry" />
        </mxCell>
        <mxCell id="RVXZUe4FiKriEfawHNxV-13" value="" style="endArrow=none;html=1;rounded=0;" parent="1" edge="1">
          <mxGeometry width="50" height="50" relative="1" as="geometry">
            <mxPoint x="390" y="816" as="sourcePoint" />
            <mxPoint x="195" y="816" as="targetPoint" />
          </mxGeometry>
        </mxCell>
        <mxCell id="RVXZUe4FiKriEfawHNxV-14" value="A" style="text;html=1;align=center;verticalAlign=middle;resizable=0;points=[];autosize=1;strokeColor=none;fillColor=none;" parent="1" vertex="1">
          <mxGeometry x="169.5" y="803" width="26" height="26" as="geometry" />
        </mxCell>
        <mxCell id="RVXZUe4FiKriEfawHNxV-15" value="B" style="text;html=1;align=center;verticalAlign=middle;resizable=0;points=[];autosize=1;strokeColor=none;fillColor=none;" parent="1" vertex="1">
          <mxGeometry x="392" y="803" width="26" height="26" as="geometry" />
        </mxCell>
        <mxCell id="RVXZUe4FiKriEfawHNxV-18" value="P" style="text;html=1;align=center;verticalAlign=middle;resizable=0;points=[];autosize=1;strokeColor=none;fillColor=none;" parent="1" vertex="1">
          <mxGeometry x="243" y="763" width="26" height="26" as="geometry" />
        </mxCell>
        <mxCell id="RVXZUe4FiKriEfawHNxV-19" value="Q" style="text;html=1;align=center;verticalAlign=middle;resizable=0;points=[];autosize=1;strokeColor=none;fillColor=none;" parent="1" vertex="1">
          <mxGeometry x="272.5" y="790" width="27" height="26" as="geometry" />
        </mxCell>
        <mxCell id="RVXZUe4FiKriEfawHNxV-20" value="R" style="text;html=1;align=center;verticalAlign=middle;resizable=0;points=[];autosize=1;strokeColor=none;fillColor=none;" parent="1" vertex="1">
          <mxGeometry x="299" y="840" width="27" height="26" as="geometry" />
        </mxCell>
        <mxCell id="RVXZUe4FiKriEfawHNxV-21" value="" style="endArrow=none;html=1;rounded=0;exitX=0;exitY=1;exitDx=0;exitDy=0;strokeWidth=4;" parent="1" source="RVXZUe4FiKriEfawHNxV-8" edge="1">
          <mxGeometry width="50" height="50" relative="1" as="geometry">
            <mxPoint x="238" y="801" as="sourcePoint" />
            <mxPoint x="163" y="708" as="targetPoint" />
          </mxGeometry>
        </mxCell>
        <mxCell id="RVXZUe4FiKriEfawHNxV-22" value="" style="endArrow=none;html=1;rounded=0;entryX=1;entryY=0;entryDx=0;entryDy=0;strokeWidth=4;" parent="1" target="RVXZUe4FiKriEfawHNxV-10" edge="1">
          <mxGeometry width="50" height="50" relative="1" as="geometry">
            <mxPoint x="415" y="938" as="sourcePoint" />
            <mxPoint x="449" y="849" as="targetPoint" />
          </mxGeometry>
        </mxCell>
        <mxCell id="RVXZUe4FiKriEfawHNxV-23" value="M" style="text;html=1;align=center;verticalAlign=middle;resizable=0;points=[];autosize=1;strokeColor=none;fillColor=none;" parent="1" vertex="1">
          <mxGeometry x="139" y="689" width="28" height="26" as="geometry" />
        </mxCell>
        <mxCell id="RVXZUe4FiKriEfawHNxV-24" value="N" style="text;html=1;align=center;verticalAlign=middle;resizable=0;points=[];autosize=1;strokeColor=none;fillColor=none;" parent="1" vertex="1">
          <mxGeometry x="413" y="928" width="27" height="26" as="geometry" />
        </mxCell>
        <mxCell id="RVXZUe4FiKriEfawHNxV-25" value="J" style="text;html=1;align=center;verticalAlign=middle;resizable=0;points=[];autosize=1;strokeColor=none;fillColor=none;" parent="1" vertex="1">
          <mxGeometry x="230" y="790" width="24" height="26" as="geometry" />
        </mxCell>
        <mxCell id="RVXZUe4FiKriEfawHNxV-26" value="K" style="text;html=1;align=center;verticalAlign=middle;resizable=0;points=[];autosize=1;strokeColor=none;fillColor=none;" parent="1" vertex="1">
          <mxGeometry x="317" y="816" width="26" height="26" as="geometry" />
        </mxCell>
        <mxCell id="RVXZUe4FiKriEfawHNxV-27" value="" style="ellipse;whiteSpace=wrap;html=1;aspect=fixed;strokeWidth=4;" parent="1" vertex="1">
          <mxGeometry x="557" y="753" width="80" height="80" as="geometry" />
        </mxCell>
        <mxCell id="RVXZUe4FiKriEfawHNxV-28" value="" style="ellipse;whiteSpace=wrap;html=1;aspect=fixed;strokeWidth=4;" parent="1" vertex="1">
          <mxGeometry x="667" y="833" width="80" height="80" as="geometry" />
        </mxCell>
        <mxCell id="RVXZUe4FiKriEfawHNxV-29" value="" style="endArrow=none;html=1;rounded=0;strokeWidth=4;" parent="1" edge="1">
          <mxGeometry width="50" height="50" relative="1" as="geometry">
            <mxPoint x="763" y="833" as="sourcePoint" />
            <mxPoint x="568" y="833" as="targetPoint" />
          </mxGeometry>
        </mxCell>
        <mxCell id="RVXZUe4FiKriEfawHNxV-30" value="A" style="text;html=1;align=center;verticalAlign=middle;resizable=0;points=[];autosize=1;strokeColor=none;fillColor=none;" parent="1" vertex="1">
          <mxGeometry x="542.5" y="820" width="26" height="26" as="geometry" />
        </mxCell>
        <mxCell id="RVXZUe4FiKriEfawHNxV-31" value="B" style="text;html=1;align=center;verticalAlign=middle;resizable=0;points=[];autosize=1;strokeColor=none;fillColor=none;" parent="1" vertex="1">
          <mxGeometry x="765" y="820" width="26" height="26" as="geometry" />
        </mxCell>
        <mxCell id="RVXZUe4FiKriEfawHNxV-32" value="P" style="text;html=1;align=center;verticalAlign=middle;resizable=0;points=[];autosize=1;strokeColor=none;fillColor=none;" parent="1" vertex="1">
          <mxGeometry x="554" y="780" width="26" height="26" as="geometry" />
        </mxCell>
        <mxCell id="RVXZUe4FiKriEfawHNxV-34" value="R" style="text;html=1;align=center;verticalAlign=middle;resizable=0;points=[];autosize=1;strokeColor=none;fillColor=none;" parent="1" vertex="1">
          <mxGeometry x="720" y="857" width="27" height="26" as="geometry" />
        </mxCell>
        <mxCell id="RVXZUe4FiKriEfawHNxV-35" value="" style="endArrow=none;html=1;rounded=0;exitX=0;exitY=1;exitDx=0;exitDy=0;strokeWidth=4;" parent="1" source="RVXZUe4FiKriEfawHNxV-27" edge="1">
          <mxGeometry width="50" height="50" relative="1" as="geometry">
            <mxPoint x="549" y="818" as="sourcePoint" />
            <mxPoint x="474" y="725" as="targetPoint" />
          </mxGeometry>
        </mxCell>
        <mxCell id="RVXZUe4FiKriEfawHNxV-36" value="" style="endArrow=none;html=1;rounded=0;entryX=1;entryY=0;entryDx=0;entryDy=0;strokeWidth=4;" parent="1" target="RVXZUe4FiKriEfawHNxV-28" edge="1">
          <mxGeometry width="50" height="50" relative="1" as="geometry">
            <mxPoint x="836" y="955" as="sourcePoint" />
            <mxPoint x="870" y="866" as="targetPoint" />
          </mxGeometry>
        </mxCell>
        <mxCell id="RVXZUe4FiKriEfawHNxV-37" value="M" style="text;html=1;align=center;verticalAlign=middle;resizable=0;points=[];autosize=1;strokeColor=none;fillColor=none;" parent="1" vertex="1">
          <mxGeometry x="450" y="706" width="28" height="26" as="geometry" />
        </mxCell>
        <mxCell id="RVXZUe4FiKriEfawHNxV-38" value="N" style="text;html=1;align=center;verticalAlign=middle;resizable=0;points=[];autosize=1;strokeColor=none;fillColor=none;" parent="1" vertex="1">
          <mxGeometry x="834" y="945" width="27" height="26" as="geometry" />
        </mxCell>
        <mxCell id="RVXZUe4FiKriEfawHNxV-39" value="J" style="text;html=1;align=center;verticalAlign=middle;resizable=0;points=[];autosize=1;strokeColor=none;fillColor=none;" parent="1" vertex="1">
          <mxGeometry x="537" y="803" width="24" height="26" as="geometry" />
        </mxCell>
        <mxCell id="RVXZUe4FiKriEfawHNxV-40" value="K" style="text;html=1;align=center;verticalAlign=middle;resizable=0;points=[];autosize=1;strokeColor=none;fillColor=none;" parent="1" vertex="1">
          <mxGeometry x="741" y="837" width="26" height="26" as="geometry" />
        </mxCell>
        <mxCell id="RVXZUe4FiKriEfawHNxV-41" value="Y" style="text;html=1;align=center;verticalAlign=middle;resizable=0;points=[];autosize=1;strokeColor=none;fillColor=none;" parent="1" vertex="1">
          <mxGeometry x="583" y="829" width="26" height="26" as="geometry" />
        </mxCell>
        <mxCell id="RVXZUe4FiKriEfawHNxV-42" value="W" style="text;html=1;align=center;verticalAlign=middle;resizable=0;points=[];autosize=1;strokeColor=none;fillColor=none;" parent="1" vertex="1">
          <mxGeometry x="691" y="811" width="29" height="26" as="geometry" />
        </mxCell>
        <mxCell id="Rtb0cXOA5EiNSojr2DT2-1" value="" style="endArrow=none;html=1;rounded=0;strokeWidth=4;" parent="1" edge="1">
          <mxGeometry width="50" height="50" relative="1" as="geometry">
            <mxPoint x="1515" y="709" as="sourcePoint" />
            <mxPoint x="1443" y="613" as="targetPoint" />
          </mxGeometry>
        </mxCell>
        <mxCell id="Rtb0cXOA5EiNSojr2DT2-2" value="" style="endArrow=none;html=1;rounded=0;strokeWidth=1;strokeColor=#B3B3B3;dashed=1;dashPattern=1 1;" parent="1" edge="1">
          <mxGeometry width="50" height="50" relative="1" as="geometry">
            <mxPoint x="1446" y="759" as="sourcePoint" />
            <mxPoint x="1620" y="630" as="targetPoint" />
          </mxGeometry>
        </mxCell>
        <mxCell id="Rtb0cXOA5EiNSojr2DT2-8" value="" style="shape=partialRectangle;whiteSpace=wrap;html=1;bottom=0;right=0;fillColor=none;rotation=52;" parent="1" vertex="1">
          <mxGeometry x="1513" y="698" width="8" height="8" as="geometry" />
        </mxCell>
        <mxCell id="Rtb0cXOA5EiNSojr2DT2-9" value="" style="ellipse;whiteSpace=wrap;html=1;aspect=fixed;fillColor=none;strokeWidth=1;dashed=1;dashPattern=1 1;strokeColor=#3399FF;" parent="1" vertex="1">
          <mxGeometry x="1507" y="644" width="80" height="80" as="geometry" />
        </mxCell>
        <mxCell id="Rtb0cXOA5EiNSojr2DT2-10" value="" style="shape=waypoint;sketch=0;fillStyle=solid;size=6;pointerEvents=1;points=[];fillColor=none;resizable=0;rotatable=0;perimeter=centerPerimeter;snapToPoint=1;" parent="1" vertex="1">
          <mxGeometry x="1537" y="675" width="20" height="20" as="geometry" />
        </mxCell>
        <mxCell id="Rtb0cXOA5EiNSojr2DT2-11" value="" style="endArrow=none;html=1;rounded=0;strokeWidth=1;strokeColor=#B3B3B3;dashed=1;dashPattern=1 1;" parent="1" edge="1">
          <mxGeometry width="50" height="50" relative="1" as="geometry">
            <mxPoint x="1464" y="724" as="sourcePoint" />
            <mxPoint x="1669" y="726" as="targetPoint" />
          </mxGeometry>
        </mxCell>
        <mxCell id="Rtb0cXOA5EiNSojr2DT2-12" value="" style="endArrow=none;html=1;rounded=0;strokeWidth=4;strokeColor=#000000;" parent="1" edge="1">
          <mxGeometry width="50" height="50" relative="1" as="geometry">
            <mxPoint x="1546" y="723" as="sourcePoint" />
            <mxPoint x="1612" y="724" as="targetPoint" />
          </mxGeometry>
        </mxCell>
        <mxCell id="Rtb0cXOA5EiNSojr2DT2-13" value="" style="ellipse;whiteSpace=wrap;html=1;aspect=fixed;fillColor=none;strokeWidth=1;dashed=1;dashPattern=1 1;strokeColor=#3399FF;" parent="1" vertex="1">
          <mxGeometry x="1546" y="724.5" width="130" height="130" as="geometry" />
        </mxCell>
        <mxCell id="Rtb0cXOA5EiNSojr2DT2-14" value="" style="endArrow=none;html=1;rounded=0;strokeWidth=1;strokeColor=#B3B3B3;dashed=1;dashPattern=1 1;" parent="1" edge="1">
          <mxGeometry width="50" height="50" relative="1" as="geometry">
            <mxPoint x="1611" y="887" as="sourcePoint" />
            <mxPoint x="1611" y="685" as="targetPoint" />
          </mxGeometry>
        </mxCell>
        <mxCell id="Rtb0cXOA5EiNSojr2DT2-15" value="" style="shape=partialRectangle;whiteSpace=wrap;html=1;bottom=0;right=0;fillColor=none;rotation=-90;" parent="1" vertex="1">
          <mxGeometry x="1600.5" y="724.5" width="11" height="10" as="geometry" />
        </mxCell>
        <mxCell id="Rtb0cXOA5EiNSojr2DT2-16" value="" style="endArrow=classic;html=1;rounded=0;strokeWidth=4;strokeColor=#000000;endFill=1;" parent="1" edge="1">
          <mxGeometry width="50" height="50" relative="1" as="geometry">
            <mxPoint x="1654" y="740" as="sourcePoint" />
            <mxPoint x="1714" y="799" as="targetPoint" />
          </mxGeometry>
        </mxCell>
        <mxCell id="Rtb0cXOA5EiNSojr2DT2-17" value="" style="endArrow=none;html=1;rounded=0;strokeWidth=1;strokeColor=#B3B3B3;dashed=1;dashPattern=1 1;" parent="1" edge="1">
          <mxGeometry width="50" height="50" relative="1" as="geometry">
            <mxPoint x="1619" y="708" as="sourcePoint" />
            <mxPoint x="1723" y="809" as="targetPoint" />
          </mxGeometry>
        </mxCell>
        <mxCell id="Rtb0cXOA5EiNSojr2DT2-18" value="M" style="text;html=1;align=center;verticalAlign=middle;resizable=0;points=[];autosize=1;strokeColor=none;fillColor=none;" parent="1" vertex="1">
          <mxGeometry x="1420" y="603" width="28" height="26" as="geometry" />
        </mxCell>
        <mxCell id="Rtb0cXOA5EiNSojr2DT2-19" value="N" style="text;html=1;align=center;verticalAlign=middle;resizable=0;points=[];autosize=1;strokeColor=none;fillColor=none;" parent="1" vertex="1">
          <mxGeometry x="1489" y="695" width="27" height="26" as="geometry" />
        </mxCell>
        <mxCell id="Rtb0cXOA5EiNSojr2DT2-20" value="P" style="text;html=1;align=center;verticalAlign=middle;resizable=0;points=[];autosize=1;strokeColor=none;fillColor=none;" parent="1" vertex="1">
          <mxGeometry x="1428" y="751" width="26" height="26" as="geometry" />
        </mxCell>
        <mxCell id="Rtb0cXOA5EiNSojr2DT2-21" value="Q" style="text;html=1;align=center;verticalAlign=middle;resizable=0;points=[];autosize=1;strokeColor=none;fillColor=none;" parent="1" vertex="1">
          <mxGeometry x="1611.5" y="615" width="27" height="26" as="geometry" />
        </mxCell>
        <mxCell id="Rtb0cXOA5EiNSojr2DT2-22" value="O" style="text;html=1;align=center;verticalAlign=middle;resizable=0;points=[];autosize=1;strokeColor=none;fillColor=none;" parent="1" vertex="1">
          <mxGeometry x="1526" y="666" width="27" height="26" as="geometry" />
        </mxCell>
        <mxCell id="qyOxX3qlLJTzYUR94sr_-1" value="" style="shape=waypoint;sketch=0;fillStyle=solid;size=6;pointerEvents=1;points=[];fillColor=none;resizable=0;rotatable=0;perimeter=centerPerimeter;snapToPoint=1;" vertex="1" parent="1">
          <mxGeometry x="1601" y="778" width="20" height="20" as="geometry" />
        </mxCell>
        <mxCell id="qyOxX3qlLJTzYUR94sr_-2" value="" style="verticalLabelPosition=bottom;verticalAlign=top;html=1;shape=mxgraph.basic.arc;startAngle=0.4829520668076056;endAngle=0.6642753008656959;" vertex="1" parent="1">
          <mxGeometry x="1510.75" y="666" width="57.5" height="57" as="geometry" />
        </mxCell>
        <mxCell id="qyOxX3qlLJTzYUR94sr_-5" value="" style="verticalLabelPosition=bottom;verticalAlign=top;html=1;shape=mxgraph.basic.arc;startAngle=0.49675239075581273;endAngle=0.6379395947490989;strokeColor=#000000;strokeWidth=4;" vertex="1" parent="1">
          <mxGeometry x="1504" y="639" width="84" height="84" as="geometry" />
        </mxCell>
        <mxCell id="qyOxX3qlLJTzYUR94sr_-6" value="" style="verticalLabelPosition=bottom;verticalAlign=top;html=1;shape=mxgraph.basic.arc;startAngle=0.9952267833287348;endAngle=0.13775150884890563;strokeColor=#000000;strokeWidth=4;" vertex="1" parent="1">
          <mxGeometry x="1546" y="724" width="130" height="130" as="geometry" />
        </mxCell>
      </root>
    </mxGraphModel>
  </diagram>
</mxfile>
